<mxfile host="app.diagrams.net" modified="2023-11-17T16:30:26.155Z" agent="Mozilla/5.0 (Windows NT 10.0; Win64; x64) AppleWebKit/537.36 (KHTML, like Gecko) Chrome/119.0.0.0 Safari/537.36 Edg/119.0.0.0" etag="QMxnou7APq9JZybmBXqi" version="22.1.2" type="github">
  <diagram name="Page-1" id="VufQPciKcZgscgLH1rP9">
    <mxGraphModel dx="1246" dy="633" grid="1" gridSize="10" guides="1" tooltips="1" connect="1" arrows="1" fold="1" page="1" pageScale="1" pageWidth="850" pageHeight="1100" math="0" shadow="0">
      <root>
        <mxCell id="0" />
        <mxCell id="1" parent="0" />
        <mxCell id="TZLN4ZUK96bLso9t57lf-16" style="rounded=0;orthogonalLoop=1;jettySize=auto;html=1;entryX=0;entryY=0.5;entryDx=0;entryDy=0;" edge="1" parent="1" target="TZLN4ZUK96bLso9t57lf-8">
          <mxGeometry relative="1" as="geometry">
            <mxPoint x="145" y="140" as="sourcePoint" />
          </mxGeometry>
        </mxCell>
        <mxCell id="TZLN4ZUK96bLso9t57lf-1" value="user" style="shape=umlActor;verticalLabelPosition=bottom;verticalAlign=top;html=1;outlineConnect=0;" vertex="1" parent="1">
          <mxGeometry x="120" y="110" width="25" height="60" as="geometry" />
        </mxCell>
        <mxCell id="TZLN4ZUK96bLso9t57lf-43" style="rounded=0;orthogonalLoop=1;jettySize=auto;html=1;entryX=1;entryY=0.5;entryDx=0;entryDy=0;" edge="1" parent="1" target="TZLN4ZUK96bLso9t57lf-25">
          <mxGeometry relative="1" as="geometry">
            <mxPoint x="795" y="600" as="sourcePoint" />
          </mxGeometry>
        </mxCell>
        <mxCell id="TZLN4ZUK96bLso9t57lf-2" value="admin" style="shape=umlActor;verticalLabelPosition=bottom;verticalAlign=top;html=1;outlineConnect=0;" vertex="1" parent="1">
          <mxGeometry x="805" y="570" width="30" height="60" as="geometry" />
        </mxCell>
        <mxCell id="TZLN4ZUK96bLso9t57lf-8" value="login" style="ellipse;whiteSpace=wrap;html=1;" vertex="1" parent="1">
          <mxGeometry x="215" y="100" width="190" height="30" as="geometry" />
        </mxCell>
        <mxCell id="TZLN4ZUK96bLso9t57lf-9" value="buat akun" style="ellipse;whiteSpace=wrap;html=1;" vertex="1" parent="1">
          <mxGeometry x="215" y="50" width="190" height="30" as="geometry" />
        </mxCell>
        <mxCell id="TZLN4ZUK96bLso9t57lf-12" value="mengisi form daftar kursus makeup" style="ellipse;whiteSpace=wrap;html=1;" vertex="1" parent="1">
          <mxGeometry x="215" y="150" width="190" height="30" as="geometry" />
        </mxCell>
        <mxCell id="TZLN4ZUK96bLso9t57lf-13" value="mengisi form sewa backdrop" style="ellipse;whiteSpace=wrap;html=1;" vertex="1" parent="1">
          <mxGeometry x="215" y="200" width="190" height="30" as="geometry" />
        </mxCell>
        <mxCell id="TZLN4ZUK96bLso9t57lf-17" style="rounded=0;orthogonalLoop=1;jettySize=auto;html=1;entryX=0;entryY=0.5;entryDx=0;entryDy=0;" edge="1" parent="1" target="TZLN4ZUK96bLso9t57lf-12">
          <mxGeometry relative="1" as="geometry">
            <mxPoint x="145" y="140" as="sourcePoint" />
            <mxPoint x="225" y="125" as="targetPoint" />
          </mxGeometry>
        </mxCell>
        <mxCell id="TZLN4ZUK96bLso9t57lf-18" style="rounded=0;orthogonalLoop=1;jettySize=auto;html=1;entryX=0;entryY=0.5;entryDx=0;entryDy=0;" edge="1" parent="1" target="TZLN4ZUK96bLso9t57lf-9">
          <mxGeometry relative="1" as="geometry">
            <mxPoint x="145" y="140" as="sourcePoint" />
            <mxPoint x="215" y="110" as="targetPoint" />
          </mxGeometry>
        </mxCell>
        <mxCell id="TZLN4ZUK96bLso9t57lf-19" style="rounded=0;orthogonalLoop=1;jettySize=auto;html=1;entryX=0;entryY=0.5;entryDx=0;entryDy=0;" edge="1" parent="1" target="TZLN4ZUK96bLso9t57lf-13">
          <mxGeometry relative="1" as="geometry">
            <mxPoint x="145" y="140" as="sourcePoint" />
            <mxPoint x="235" y="135" as="targetPoint" />
          </mxGeometry>
        </mxCell>
        <mxCell id="TZLN4ZUK96bLso9t57lf-20" value="melihat list log daftar kursus" style="ellipse;whiteSpace=wrap;html=1;" vertex="1" parent="1">
          <mxGeometry x="465" y="250" width="190" height="30" as="geometry" />
        </mxCell>
        <mxCell id="TZLN4ZUK96bLso9t57lf-21" value="melihat list log sewa backdrop" style="ellipse;whiteSpace=wrap;html=1;" vertex="1" parent="1">
          <mxGeometry x="465" y="300" width="190" height="30" as="geometry" />
        </mxCell>
        <mxCell id="TZLN4ZUK96bLso9t57lf-22" value="melihat list data paket kursus" style="ellipse;whiteSpace=wrap;html=1;" vertex="1" parent="1">
          <mxGeometry x="465" y="350" width="190" height="30" as="geometry" />
        </mxCell>
        <mxCell id="TZLN4ZUK96bLso9t57lf-23" value="melihat list data model backdrop" style="ellipse;whiteSpace=wrap;html=1;" vertex="1" parent="1">
          <mxGeometry x="465" y="400" width="190" height="30" as="geometry" />
        </mxCell>
        <mxCell id="TZLN4ZUK96bLso9t57lf-24" value="login" style="ellipse;whiteSpace=wrap;html=1;" vertex="1" parent="1">
          <mxGeometry x="15" y="540" width="190" height="30" as="geometry" />
        </mxCell>
        <mxCell id="TZLN4ZUK96bLso9t57lf-25" value="menambah data paket/model baru" style="ellipse;whiteSpace=wrap;html=1;" vertex="1" parent="1">
          <mxGeometry x="465" y="850" width="190" height="30" as="geometry" />
        </mxCell>
        <mxCell id="TZLN4ZUK96bLso9t57lf-26" value="mengedit log daftar kursus" style="ellipse;whiteSpace=wrap;html=1;" vertex="1" parent="1">
          <mxGeometry x="465" y="450" width="190" height="30" as="geometry" />
        </mxCell>
        <mxCell id="TZLN4ZUK96bLso9t57lf-27" value="mengedit&amp;nbsp;log sewa backdrop" style="ellipse;whiteSpace=wrap;html=1;" vertex="1" parent="1">
          <mxGeometry x="465" y="500" width="190" height="30" as="geometry" />
        </mxCell>
        <mxCell id="TZLN4ZUK96bLso9t57lf-28" value="mengedit&amp;nbsp;data paket kursus" style="ellipse;whiteSpace=wrap;html=1;" vertex="1" parent="1">
          <mxGeometry x="465" y="550" width="190" height="30" as="geometry" />
        </mxCell>
        <mxCell id="TZLN4ZUK96bLso9t57lf-29" value="mengedit&amp;nbsp;data model backdrop" style="ellipse;whiteSpace=wrap;html=1;" vertex="1" parent="1">
          <mxGeometry x="465" y="600" width="190" height="30" as="geometry" />
        </mxCell>
        <mxCell id="TZLN4ZUK96bLso9t57lf-34" value="menghapus&amp;nbsp;log daftar kursus" style="ellipse;whiteSpace=wrap;html=1;" vertex="1" parent="1">
          <mxGeometry x="465" y="650" width="190" height="30" as="geometry" />
        </mxCell>
        <mxCell id="TZLN4ZUK96bLso9t57lf-35" value="menghapus&amp;nbsp;log sewa backdrop" style="ellipse;whiteSpace=wrap;html=1;" vertex="1" parent="1">
          <mxGeometry x="465" y="700" width="190" height="30" as="geometry" />
        </mxCell>
        <mxCell id="TZLN4ZUK96bLso9t57lf-36" value="menghapus&amp;nbsp;data paket kursus" style="ellipse;whiteSpace=wrap;html=1;" vertex="1" parent="1">
          <mxGeometry x="465" y="750" width="190" height="30" as="geometry" />
        </mxCell>
        <mxCell id="TZLN4ZUK96bLso9t57lf-37" value="menghapus&amp;nbsp;data model backdrop" style="ellipse;whiteSpace=wrap;html=1;" vertex="1" parent="1">
          <mxGeometry x="465" y="800" width="190" height="30" as="geometry" />
        </mxCell>
        <mxCell id="TZLN4ZUK96bLso9t57lf-44" style="rounded=0;orthogonalLoop=1;jettySize=auto;html=1;entryX=1;entryY=0.5;entryDx=0;entryDy=0;" edge="1" parent="1" target="TZLN4ZUK96bLso9t57lf-37">
          <mxGeometry relative="1" as="geometry">
            <mxPoint x="795" y="600" as="sourcePoint" />
            <mxPoint x="665" y="875" as="targetPoint" />
          </mxGeometry>
        </mxCell>
        <mxCell id="TZLN4ZUK96bLso9t57lf-45" style="rounded=0;orthogonalLoop=1;jettySize=auto;html=1;entryX=1;entryY=0.5;entryDx=0;entryDy=0;" edge="1" parent="1" target="TZLN4ZUK96bLso9t57lf-36">
          <mxGeometry relative="1" as="geometry">
            <mxPoint x="795" y="600" as="sourcePoint" />
            <mxPoint x="665" y="825" as="targetPoint" />
          </mxGeometry>
        </mxCell>
        <mxCell id="TZLN4ZUK96bLso9t57lf-46" style="rounded=0;orthogonalLoop=1;jettySize=auto;html=1;entryX=1;entryY=0.5;entryDx=0;entryDy=0;" edge="1" parent="1" target="TZLN4ZUK96bLso9t57lf-35">
          <mxGeometry relative="1" as="geometry">
            <mxPoint x="795" y="600" as="sourcePoint" />
            <mxPoint x="655" y="795" as="targetPoint" />
          </mxGeometry>
        </mxCell>
        <mxCell id="TZLN4ZUK96bLso9t57lf-47" style="rounded=0;orthogonalLoop=1;jettySize=auto;html=1;entryX=1;entryY=0.5;entryDx=0;entryDy=0;" edge="1" parent="1" target="TZLN4ZUK96bLso9t57lf-20">
          <mxGeometry relative="1" as="geometry">
            <mxPoint x="795" y="600" as="sourcePoint" />
            <mxPoint x="655" y="485" as="targetPoint" />
          </mxGeometry>
        </mxCell>
        <mxCell id="TZLN4ZUK96bLso9t57lf-48" style="rounded=0;orthogonalLoop=1;jettySize=auto;html=1;entryX=1;entryY=0.5;entryDx=0;entryDy=0;" edge="1" parent="1" target="TZLN4ZUK96bLso9t57lf-21">
          <mxGeometry relative="1" as="geometry">
            <mxPoint x="795" y="600" as="sourcePoint" />
            <mxPoint x="665" y="275" as="targetPoint" />
          </mxGeometry>
        </mxCell>
        <mxCell id="TZLN4ZUK96bLso9t57lf-49" style="rounded=0;orthogonalLoop=1;jettySize=auto;html=1;entryX=1;entryY=0.5;entryDx=0;entryDy=0;" edge="1" parent="1" target="TZLN4ZUK96bLso9t57lf-22">
          <mxGeometry relative="1" as="geometry">
            <mxPoint x="795" y="600" as="sourcePoint" />
            <mxPoint x="675" y="285" as="targetPoint" />
          </mxGeometry>
        </mxCell>
        <mxCell id="TZLN4ZUK96bLso9t57lf-50" style="rounded=0;orthogonalLoop=1;jettySize=auto;html=1;entryX=1;entryY=0.5;entryDx=0;entryDy=0;" edge="1" parent="1" target="TZLN4ZUK96bLso9t57lf-23">
          <mxGeometry relative="1" as="geometry">
            <mxPoint x="795" y="600" as="sourcePoint" />
            <mxPoint x="665" y="375" as="targetPoint" />
          </mxGeometry>
        </mxCell>
        <mxCell id="TZLN4ZUK96bLso9t57lf-51" style="rounded=0;orthogonalLoop=1;jettySize=auto;html=1;entryX=1;entryY=0.5;entryDx=0;entryDy=0;" edge="1" parent="1" target="TZLN4ZUK96bLso9t57lf-26">
          <mxGeometry relative="1" as="geometry">
            <mxPoint x="795" y="600" as="sourcePoint" />
            <mxPoint x="665" y="425" as="targetPoint" />
          </mxGeometry>
        </mxCell>
        <mxCell id="TZLN4ZUK96bLso9t57lf-52" style="rounded=0;orthogonalLoop=1;jettySize=auto;html=1;entryX=1;entryY=0.5;entryDx=0;entryDy=0;" edge="1" parent="1" target="TZLN4ZUK96bLso9t57lf-27">
          <mxGeometry relative="1" as="geometry">
            <mxPoint x="795" y="600" as="sourcePoint" />
            <mxPoint x="675" y="435" as="targetPoint" />
          </mxGeometry>
        </mxCell>
        <mxCell id="TZLN4ZUK96bLso9t57lf-53" style="rounded=0;orthogonalLoop=1;jettySize=auto;html=1;entryX=1;entryY=0.5;entryDx=0;entryDy=0;" edge="1" parent="1" target="TZLN4ZUK96bLso9t57lf-28">
          <mxGeometry relative="1" as="geometry">
            <mxPoint x="795" y="600" as="sourcePoint" />
            <mxPoint x="685" y="445" as="targetPoint" />
          </mxGeometry>
        </mxCell>
        <mxCell id="TZLN4ZUK96bLso9t57lf-54" style="rounded=0;orthogonalLoop=1;jettySize=auto;html=1;entryX=1;entryY=0.5;entryDx=0;entryDy=0;" edge="1" parent="1" target="TZLN4ZUK96bLso9t57lf-34">
          <mxGeometry relative="1" as="geometry">
            <mxPoint x="795" y="600" as="sourcePoint" />
            <mxPoint x="665" y="575" as="targetPoint" />
          </mxGeometry>
        </mxCell>
        <mxCell id="TZLN4ZUK96bLso9t57lf-55" style="rounded=0;orthogonalLoop=1;jettySize=auto;html=1;entryX=1;entryY=0.5;entryDx=0;entryDy=0;" edge="1" parent="1" target="TZLN4ZUK96bLso9t57lf-29">
          <mxGeometry relative="1" as="geometry">
            <mxPoint x="795" y="600" as="sourcePoint" />
            <mxPoint x="665" y="675" as="targetPoint" />
          </mxGeometry>
        </mxCell>
        <mxCell id="TZLN4ZUK96bLso9t57lf-58" value="" style="endArrow=none;dashed=1;html=1;dashPattern=1 3;strokeWidth=2;rounded=0;entryX=0;entryY=0.5;entryDx=0;entryDy=0;exitX=1;exitY=0.5;exitDx=0;exitDy=0;" edge="1" parent="1" source="TZLN4ZUK96bLso9t57lf-24" target="TZLN4ZUK96bLso9t57lf-21">
          <mxGeometry width="50" height="50" relative="1" as="geometry">
            <mxPoint x="185" y="530" as="sourcePoint" />
            <mxPoint x="235" y="480" as="targetPoint" />
          </mxGeometry>
        </mxCell>
        <mxCell id="TZLN4ZUK96bLso9t57lf-59" value="" style="endArrow=none;dashed=1;html=1;dashPattern=1 3;strokeWidth=2;rounded=0;entryX=0;entryY=0.5;entryDx=0;entryDy=0;exitX=1;exitY=0.5;exitDx=0;exitDy=0;" edge="1" parent="1" source="TZLN4ZUK96bLso9t57lf-24" target="TZLN4ZUK96bLso9t57lf-20">
          <mxGeometry width="50" height="50" relative="1" as="geometry">
            <mxPoint x="215" y="565" as="sourcePoint" />
            <mxPoint x="475" y="325" as="targetPoint" />
          </mxGeometry>
        </mxCell>
        <mxCell id="TZLN4ZUK96bLso9t57lf-60" value="" style="endArrow=none;dashed=1;html=1;dashPattern=1 3;strokeWidth=2;rounded=0;entryX=0;entryY=0.5;entryDx=0;entryDy=0;exitX=1;exitY=0.5;exitDx=0;exitDy=0;" edge="1" parent="1" source="TZLN4ZUK96bLso9t57lf-24" target="TZLN4ZUK96bLso9t57lf-22">
          <mxGeometry width="50" height="50" relative="1" as="geometry">
            <mxPoint x="225" y="575" as="sourcePoint" />
            <mxPoint x="485" y="335" as="targetPoint" />
          </mxGeometry>
        </mxCell>
        <mxCell id="TZLN4ZUK96bLso9t57lf-61" value="" style="endArrow=none;dashed=1;html=1;dashPattern=1 3;strokeWidth=2;rounded=0;entryX=0;entryY=0.5;entryDx=0;entryDy=0;exitX=1;exitY=0.5;exitDx=0;exitDy=0;" edge="1" parent="1" source="TZLN4ZUK96bLso9t57lf-24" target="TZLN4ZUK96bLso9t57lf-23">
          <mxGeometry width="50" height="50" relative="1" as="geometry">
            <mxPoint x="235" y="585" as="sourcePoint" />
            <mxPoint x="495" y="345" as="targetPoint" />
          </mxGeometry>
        </mxCell>
        <mxCell id="TZLN4ZUK96bLso9t57lf-62" value="" style="endArrow=none;dashed=1;html=1;dashPattern=1 3;strokeWidth=2;rounded=0;entryX=0;entryY=0.5;entryDx=0;entryDy=0;exitX=1;exitY=0.5;exitDx=0;exitDy=0;" edge="1" parent="1" source="TZLN4ZUK96bLso9t57lf-24" target="TZLN4ZUK96bLso9t57lf-26">
          <mxGeometry width="50" height="50" relative="1" as="geometry">
            <mxPoint x="245" y="595" as="sourcePoint" />
            <mxPoint x="505" y="355" as="targetPoint" />
          </mxGeometry>
        </mxCell>
        <mxCell id="TZLN4ZUK96bLso9t57lf-63" value="" style="endArrow=none;dashed=1;html=1;dashPattern=1 3;strokeWidth=2;rounded=0;entryX=0;entryY=0.5;entryDx=0;entryDy=0;exitX=1;exitY=0.5;exitDx=0;exitDy=0;" edge="1" parent="1" source="TZLN4ZUK96bLso9t57lf-24" target="TZLN4ZUK96bLso9t57lf-27">
          <mxGeometry width="50" height="50" relative="1" as="geometry">
            <mxPoint x="255" y="605" as="sourcePoint" />
            <mxPoint x="515" y="365" as="targetPoint" />
          </mxGeometry>
        </mxCell>
        <mxCell id="TZLN4ZUK96bLso9t57lf-64" value="" style="endArrow=none;dashed=1;html=1;dashPattern=1 3;strokeWidth=2;rounded=0;entryX=0;entryY=0.5;entryDx=0;entryDy=0;exitX=1;exitY=0.5;exitDx=0;exitDy=0;" edge="1" parent="1" source="TZLN4ZUK96bLso9t57lf-24" target="TZLN4ZUK96bLso9t57lf-28">
          <mxGeometry width="50" height="50" relative="1" as="geometry">
            <mxPoint x="265" y="615" as="sourcePoint" />
            <mxPoint x="525" y="375" as="targetPoint" />
          </mxGeometry>
        </mxCell>
        <mxCell id="TZLN4ZUK96bLso9t57lf-65" value="" style="endArrow=none;dashed=1;html=1;dashPattern=1 3;strokeWidth=2;rounded=0;entryX=0;entryY=0.5;entryDx=0;entryDy=0;exitX=1;exitY=0.5;exitDx=0;exitDy=0;" edge="1" parent="1" source="TZLN4ZUK96bLso9t57lf-24" target="TZLN4ZUK96bLso9t57lf-29">
          <mxGeometry width="50" height="50" relative="1" as="geometry">
            <mxPoint x="275" y="625" as="sourcePoint" />
            <mxPoint x="535" y="385" as="targetPoint" />
          </mxGeometry>
        </mxCell>
        <mxCell id="TZLN4ZUK96bLso9t57lf-66" value="" style="endArrow=none;dashed=1;html=1;dashPattern=1 3;strokeWidth=2;rounded=0;entryX=0;entryY=0.5;entryDx=0;entryDy=0;exitX=1;exitY=0.5;exitDx=0;exitDy=0;" edge="1" parent="1" source="TZLN4ZUK96bLso9t57lf-24" target="TZLN4ZUK96bLso9t57lf-34">
          <mxGeometry width="50" height="50" relative="1" as="geometry">
            <mxPoint x="285" y="635" as="sourcePoint" />
            <mxPoint x="545" y="395" as="targetPoint" />
          </mxGeometry>
        </mxCell>
        <mxCell id="TZLN4ZUK96bLso9t57lf-67" value="" style="endArrow=none;dashed=1;html=1;dashPattern=1 3;strokeWidth=2;rounded=0;entryX=0;entryY=0.5;entryDx=0;entryDy=0;exitX=1;exitY=0.5;exitDx=0;exitDy=0;" edge="1" parent="1" source="TZLN4ZUK96bLso9t57lf-24" target="TZLN4ZUK96bLso9t57lf-35">
          <mxGeometry width="50" height="50" relative="1" as="geometry">
            <mxPoint x="295" y="645" as="sourcePoint" />
            <mxPoint x="555" y="405" as="targetPoint" />
          </mxGeometry>
        </mxCell>
        <mxCell id="TZLN4ZUK96bLso9t57lf-68" value="" style="endArrow=none;dashed=1;html=1;dashPattern=1 3;strokeWidth=2;rounded=0;entryX=0;entryY=0.5;entryDx=0;entryDy=0;exitX=1;exitY=0.5;exitDx=0;exitDy=0;" edge="1" parent="1" source="TZLN4ZUK96bLso9t57lf-24" target="TZLN4ZUK96bLso9t57lf-36">
          <mxGeometry width="50" height="50" relative="1" as="geometry">
            <mxPoint x="195" y="620" as="sourcePoint" />
            <mxPoint x="455" y="780" as="targetPoint" />
          </mxGeometry>
        </mxCell>
        <mxCell id="TZLN4ZUK96bLso9t57lf-70" value="" style="endArrow=none;dashed=1;html=1;dashPattern=1 3;strokeWidth=2;rounded=0;entryX=0;entryY=0.5;entryDx=0;entryDy=0;exitX=1;exitY=0.5;exitDx=0;exitDy=0;" edge="1" parent="1" source="TZLN4ZUK96bLso9t57lf-24" target="TZLN4ZUK96bLso9t57lf-25">
          <mxGeometry width="50" height="50" relative="1" as="geometry">
            <mxPoint x="215" y="565" as="sourcePoint" />
            <mxPoint x="475" y="925" as="targetPoint" />
          </mxGeometry>
        </mxCell>
        <mxCell id="TZLN4ZUK96bLso9t57lf-71" value="" style="endArrow=none;dashed=1;html=1;dashPattern=1 3;strokeWidth=2;rounded=0;entryX=0;entryY=0.5;entryDx=0;entryDy=0;exitX=1;exitY=0.5;exitDx=0;exitDy=0;" edge="1" parent="1" source="TZLN4ZUK96bLso9t57lf-24" target="TZLN4ZUK96bLso9t57lf-37">
          <mxGeometry width="50" height="50" relative="1" as="geometry">
            <mxPoint x="225" y="575" as="sourcePoint" />
            <mxPoint x="485" y="935" as="targetPoint" />
          </mxGeometry>
        </mxCell>
        <mxCell id="TZLN4ZUK96bLso9t57lf-72" value="include" style="text;html=1;strokeColor=default;fillColor=none;align=center;verticalAlign=middle;whiteSpace=wrap;rounded=0;" vertex="1" parent="1">
          <mxGeometry x="401" y="280" width="60" height="30" as="geometry" />
        </mxCell>
        <mxCell id="TZLN4ZUK96bLso9t57lf-73" value="include" style="text;html=1;strokeColor=default;fillColor=none;align=center;verticalAlign=middle;whiteSpace=wrap;rounded=0;" vertex="1" parent="1">
          <mxGeometry x="401" y="326" width="60" height="30" as="geometry" />
        </mxCell>
        <mxCell id="TZLN4ZUK96bLso9t57lf-80" value="include" style="text;html=1;strokeColor=default;fillColor=none;align=center;verticalAlign=middle;whiteSpace=wrap;rounded=0;" vertex="1" parent="1">
          <mxGeometry x="401" y="375" width="60" height="30" as="geometry" />
        </mxCell>
        <mxCell id="TZLN4ZUK96bLso9t57lf-83" value="include" style="text;html=1;strokeColor=default;fillColor=none;align=center;verticalAlign=middle;whiteSpace=wrap;rounded=0;" vertex="1" parent="1">
          <mxGeometry x="401" y="422" width="60" height="30" as="geometry" />
        </mxCell>
        <mxCell id="TZLN4ZUK96bLso9t57lf-84" value="include" style="text;html=1;strokeColor=default;fillColor=none;align=center;verticalAlign=middle;whiteSpace=wrap;rounded=0;" vertex="1" parent="1">
          <mxGeometry x="401" y="466" width="60" height="30" as="geometry" />
        </mxCell>
        <mxCell id="TZLN4ZUK96bLso9t57lf-86" value="include" style="text;html=1;strokeColor=default;fillColor=none;align=center;verticalAlign=middle;whiteSpace=wrap;rounded=0;" vertex="1" parent="1">
          <mxGeometry x="401" y="510" width="60" height="30" as="geometry" />
        </mxCell>
        <mxCell id="TZLN4ZUK96bLso9t57lf-87" value="include" style="text;html=1;strokeColor=default;fillColor=none;align=center;verticalAlign=middle;whiteSpace=wrap;rounded=0;" vertex="1" parent="1">
          <mxGeometry x="401" y="550" width="60" height="30" as="geometry" />
        </mxCell>
        <mxCell id="TZLN4ZUK96bLso9t57lf-88" value="include" style="text;html=1;strokeColor=default;fillColor=none;align=center;verticalAlign=middle;whiteSpace=wrap;rounded=0;" vertex="1" parent="1">
          <mxGeometry x="401" y="590" width="60" height="30" as="geometry" />
        </mxCell>
        <mxCell id="TZLN4ZUK96bLso9t57lf-89" value="include" style="text;html=1;strokeColor=default;fillColor=none;align=center;verticalAlign=middle;whiteSpace=wrap;rounded=0;" vertex="1" parent="1">
          <mxGeometry x="401" y="630" width="60" height="30" as="geometry" />
        </mxCell>
        <mxCell id="TZLN4ZUK96bLso9t57lf-90" value="include" style="text;html=1;strokeColor=default;fillColor=none;align=center;verticalAlign=middle;whiteSpace=wrap;rounded=0;" vertex="1" parent="1">
          <mxGeometry x="401" y="670" width="60" height="30" as="geometry" />
        </mxCell>
        <mxCell id="TZLN4ZUK96bLso9t57lf-91" value="include" style="text;html=1;strokeColor=default;fillColor=none;align=center;verticalAlign=middle;whiteSpace=wrap;rounded=0;" vertex="1" parent="1">
          <mxGeometry x="401" y="720" width="60" height="30" as="geometry" />
        </mxCell>
        <mxCell id="TZLN4ZUK96bLso9t57lf-93" value="include" style="text;html=1;strokeColor=default;fillColor=none;align=center;verticalAlign=middle;whiteSpace=wrap;rounded=0;" vertex="1" parent="1">
          <mxGeometry x="401" y="810" width="60" height="30" as="geometry" />
        </mxCell>
        <mxCell id="TZLN4ZUK96bLso9t57lf-94" value="include" style="text;html=1;strokeColor=default;fillColor=none;align=center;verticalAlign=middle;whiteSpace=wrap;rounded=0;" vertex="1" parent="1">
          <mxGeometry x="401" y="760" width="60" height="30" as="geometry" />
        </mxCell>
        <mxCell id="TZLN4ZUK96bLso9t57lf-95" value="super admin" style="shape=umlActor;verticalLabelPosition=bottom;verticalAlign=top;html=1;outlineConnect=0;" vertex="1" parent="1">
          <mxGeometry x="810" y="1095" width="30" height="65" as="geometry" />
        </mxCell>
        <mxCell id="TZLN4ZUK96bLso9t57lf-96" value="melihat list log sewa backdrop" style="ellipse;whiteSpace=wrap;html=1;" vertex="1" parent="1">
          <mxGeometry x="459" y="1040" width="190" height="30" as="geometry" />
        </mxCell>
        <mxCell id="TZLN4ZUK96bLso9t57lf-97" value="melihat list data paket kursus" style="ellipse;whiteSpace=wrap;html=1;" vertex="1" parent="1">
          <mxGeometry x="459" y="1090" width="190" height="30" as="geometry" />
        </mxCell>
        <mxCell id="TZLN4ZUK96bLso9t57lf-98" value="melihat list data model backdrop" style="ellipse;whiteSpace=wrap;html=1;" vertex="1" parent="1">
          <mxGeometry x="459" y="1140" width="190" height="30" as="geometry" />
        </mxCell>
        <mxCell id="TZLN4ZUK96bLso9t57lf-99" value="menambahkan admin baru" style="ellipse;whiteSpace=wrap;html=1;" vertex="1" parent="1">
          <mxGeometry x="459" y="1190" width="190" height="30" as="geometry" />
        </mxCell>
        <mxCell id="TZLN4ZUK96bLso9t57lf-103" style="rounded=0;orthogonalLoop=1;jettySize=auto;html=1;entryX=1;entryY=0.5;entryDx=0;entryDy=0;" edge="1" parent="1" target="TZLN4ZUK96bLso9t57lf-129">
          <mxGeometry relative="1" as="geometry">
            <mxPoint x="800" y="1125" as="sourcePoint" />
            <mxPoint x="660" y="790" as="targetPoint" />
          </mxGeometry>
        </mxCell>
        <mxCell id="TZLN4ZUK96bLso9t57lf-104" style="rounded=0;orthogonalLoop=1;jettySize=auto;html=1;entryX=1;entryY=0.5;entryDx=0;entryDy=0;" edge="1" parent="1" target="TZLN4ZUK96bLso9t57lf-96">
          <mxGeometry relative="1" as="geometry">
            <mxPoint x="800" y="1125" as="sourcePoint" />
            <mxPoint x="670" y="800" as="targetPoint" />
          </mxGeometry>
        </mxCell>
        <mxCell id="TZLN4ZUK96bLso9t57lf-105" style="rounded=0;orthogonalLoop=1;jettySize=auto;html=1;entryX=1;entryY=0.5;entryDx=0;entryDy=0;" edge="1" parent="1" target="TZLN4ZUK96bLso9t57lf-97">
          <mxGeometry relative="1" as="geometry">
            <mxPoint x="800" y="1125" as="sourcePoint" />
            <mxPoint x="680" y="810" as="targetPoint" />
          </mxGeometry>
        </mxCell>
        <mxCell id="TZLN4ZUK96bLso9t57lf-106" style="rounded=0;orthogonalLoop=1;jettySize=auto;html=1;entryX=1;entryY=0.5;entryDx=0;entryDy=0;" edge="1" parent="1" target="TZLN4ZUK96bLso9t57lf-98">
          <mxGeometry relative="1" as="geometry">
            <mxPoint x="800" y="1125" as="sourcePoint" />
            <mxPoint x="670" y="900" as="targetPoint" />
          </mxGeometry>
        </mxCell>
        <mxCell id="TZLN4ZUK96bLso9t57lf-107" style="rounded=0;orthogonalLoop=1;jettySize=auto;html=1;entryX=1;entryY=0.5;entryDx=0;entryDy=0;" edge="1" parent="1" target="TZLN4ZUK96bLso9t57lf-99">
          <mxGeometry relative="1" as="geometry">
            <mxPoint x="800" y="1125" as="sourcePoint" />
            <mxPoint x="670" y="950" as="targetPoint" />
          </mxGeometry>
        </mxCell>
        <mxCell id="TZLN4ZUK96bLso9t57lf-111" value="" style="endArrow=none;dashed=1;html=1;dashPattern=1 3;strokeWidth=2;rounded=0;entryX=0;entryY=0.5;entryDx=0;entryDy=0;exitX=1;exitY=0.5;exitDx=0;exitDy=0;" edge="1" parent="1" target="TZLN4ZUK96bLso9t57lf-96">
          <mxGeometry width="50" height="50" relative="1" as="geometry">
            <mxPoint x="210" y="1080" as="sourcePoint" />
            <mxPoint x="240" y="1005" as="targetPoint" />
          </mxGeometry>
        </mxCell>
        <mxCell id="TZLN4ZUK96bLso9t57lf-112" value="" style="endArrow=none;dashed=1;html=1;dashPattern=1 3;strokeWidth=2;rounded=0;entryX=0;entryY=0.5;entryDx=0;entryDy=0;exitX=1;exitY=0.5;exitDx=0;exitDy=0;" edge="1" parent="1" target="TZLN4ZUK96bLso9t57lf-129">
          <mxGeometry width="50" height="50" relative="1" as="geometry">
            <mxPoint x="210" y="1080" as="sourcePoint" />
            <mxPoint x="470" y="790" as="targetPoint" />
          </mxGeometry>
        </mxCell>
        <mxCell id="TZLN4ZUK96bLso9t57lf-113" value="" style="endArrow=none;dashed=1;html=1;dashPattern=1 3;strokeWidth=2;rounded=0;entryX=0;entryY=0.5;entryDx=0;entryDy=0;exitX=1;exitY=0.5;exitDx=0;exitDy=0;" edge="1" parent="1" target="TZLN4ZUK96bLso9t57lf-97">
          <mxGeometry width="50" height="50" relative="1" as="geometry">
            <mxPoint x="210" y="1080" as="sourcePoint" />
            <mxPoint x="490" y="860" as="targetPoint" />
          </mxGeometry>
        </mxCell>
        <mxCell id="TZLN4ZUK96bLso9t57lf-114" value="" style="endArrow=none;dashed=1;html=1;dashPattern=1 3;strokeWidth=2;rounded=0;entryX=0;entryY=0.5;entryDx=0;entryDy=0;exitX=1;exitY=0.5;exitDx=0;exitDy=0;" edge="1" parent="1" target="TZLN4ZUK96bLso9t57lf-98">
          <mxGeometry width="50" height="50" relative="1" as="geometry">
            <mxPoint x="210" y="1080" as="sourcePoint" />
            <mxPoint x="500" y="870" as="targetPoint" />
          </mxGeometry>
        </mxCell>
        <mxCell id="TZLN4ZUK96bLso9t57lf-115" value="" style="endArrow=none;dashed=1;html=1;dashPattern=1 3;strokeWidth=2;rounded=0;entryX=0;entryY=0.5;entryDx=0;entryDy=0;exitX=1;exitY=0.5;exitDx=0;exitDy=0;" edge="1" parent="1" target="TZLN4ZUK96bLso9t57lf-99">
          <mxGeometry width="50" height="50" relative="1" as="geometry">
            <mxPoint x="210" y="1080" as="sourcePoint" />
            <mxPoint x="510" y="880" as="targetPoint" />
          </mxGeometry>
        </mxCell>
        <mxCell id="TZLN4ZUK96bLso9t57lf-119" value="include" style="text;html=1;strokeColor=default;fillColor=none;align=center;verticalAlign=middle;whiteSpace=wrap;rounded=0;" vertex="1" parent="1">
          <mxGeometry x="395" y="1001" width="60" height="30" as="geometry" />
        </mxCell>
        <mxCell id="TZLN4ZUK96bLso9t57lf-120" value="include" style="text;html=1;strokeColor=default;fillColor=none;align=center;verticalAlign=middle;whiteSpace=wrap;rounded=0;" vertex="1" parent="1">
          <mxGeometry x="395" y="1046" width="60" height="30" as="geometry" />
        </mxCell>
        <mxCell id="TZLN4ZUK96bLso9t57lf-121" value="include" style="text;html=1;strokeColor=default;fillColor=none;align=center;verticalAlign=middle;whiteSpace=wrap;rounded=0;" vertex="1" parent="1">
          <mxGeometry x="395" y="1089" width="60" height="30" as="geometry" />
        </mxCell>
        <mxCell id="TZLN4ZUK96bLso9t57lf-122" value="include" style="text;html=1;strokeColor=default;fillColor=none;align=center;verticalAlign=middle;whiteSpace=wrap;rounded=0;" vertex="1" parent="1">
          <mxGeometry x="395" y="1130" width="60" height="30" as="geometry" />
        </mxCell>
        <mxCell id="TZLN4ZUK96bLso9t57lf-123" value="include" style="text;html=1;strokeColor=default;fillColor=none;align=center;verticalAlign=middle;whiteSpace=wrap;rounded=0;" vertex="1" parent="1">
          <mxGeometry x="395" y="1176" width="60" height="30" as="geometry" />
        </mxCell>
        <mxCell id="TZLN4ZUK96bLso9t57lf-128" value="login" style="ellipse;whiteSpace=wrap;html=1;" vertex="1" parent="1">
          <mxGeometry x="22" y="1065" width="190" height="30" as="geometry" />
        </mxCell>
        <mxCell id="TZLN4ZUK96bLso9t57lf-129" value="melihat list log daftar kursus" style="ellipse;whiteSpace=wrap;html=1;" vertex="1" parent="1">
          <mxGeometry x="459" y="990" width="190" height="30" as="geometry" />
        </mxCell>
      </root>
    </mxGraphModel>
  </diagram>
</mxfile>
